# xmcd
#
# Track frame offsets: 
#        150
#        13330
#        29382
#        42547
#        56735
#        74907
#        94442
#        110450
#        123840
#        136460
#        150807
#
# Disc length: 2195 seconds
#
# Revision: 0
# Processed by: cddbd v1.5.1PL0 Copyright (c) Steve Scherf et al.
# Submitted via: ExactAudioCopy v0.95a5
#
DISCID=9e08910b
DTITLE=Buck Naked and the Chapped Cheeks - Chapped Cheek Swing
DYEAR=1996
DGENRE=Swing
TTITLE0=Chapped Cheek Swing
TTITLE1=Invitation to the Blues
TTITLE2=Cowboy Star
TTITLE3=Let's Get Drunk and be Somebody
TTITLE4=Dance You Off My Mind
TTITLE5=San Antonio Rose
TTITLE6=Pour Me Something Blue
TTITLE7=Runnin' Gun
TTITLE8=Had No Idea
TTITLE9=Two Steppin' to the Blues
TTITLE10=Nobody Here But Us Chickens
EXTD=
EXTT0=
EXTT1=
EXTT2=
EXTT3=
EXTT4=
EXTT5=
EXTT6=
EXTT7=
EXTT8=
EXTT9=
EXTT10=
PLAYORDER=
